<?xml version="1.0" standalone="no"?>
<!DOCTYPE svg PUBLIC "-//W3C//DTD SVG 20010904//EN"
 "http://www.w3.org/TR/2001/REC-SVG-20010904/DTD/svg10.dtd">
<svg version="1.0" xmlns="http://www.w3.org/2000/svg"
 width="191.000000pt" height="117.000000pt" viewBox="0 0 191.000000 117.000000"
 preserveAspectRatio="xMidYMid meet">

<g transform="translate(0.000000,117.000000) scale(0.100000,-0.100000)"
fill="#000000" stroke="none">
<path d="M1434 355 c-8 -13 -13 -33 -10 -43 4 -11 2 -32 -4 -47 -10 -26 -13
-27 -73 -23 l-62 3 -6 -35 -6 -35 -2 38 c-1 38 -21 45 -21 8 0 -49 -58 -50
-70 -1 -3 13 -11 25 -17 27 -7 3 -9 -4 -6 -16 7 -27 -15 -54 -38 -48 -12 3
-19 -2 -22 -17 -2 -11 -5 2 -6 29 l-1 50 -40 0 c-39 0 -40 -1 -41 -35 l-2 -35
-6 35 c-4 22 -12 35 -21 35 -9 0 -17 -13 -21 -35 l-6 -35 -2 37 c-1 49 -33 47
-42 -3 l-6 -34 -2 40 c-1 36 -3 38 -15 23 -7 -10 -23 -18 -35 -18 -14 0 -21
-5 -18 -12 2 -7 12 -12 21 -12 9 1 16 -3 16 -8 0 -5 -10 -8 -22 -6 -18 2 -24
11 -26 36 -4 42 -22 42 -22 -1 0 -29 -3 -33 -30 -35 -27 -2 -31 2 -36 28 -7
33 -24 41 -24 11 0 -28 -28 -47 -48 -34 -10 5 -19 19 -20 29 -8 39 -22 38 -23
-2 l-2 -39 -6 35 c-4 22 -12 35 -21 35 -9 0 -17 -13 -21 -35 l-6 -35 -4 35
c-6 49 -33 47 -37 -2 -3 -30 0 -37 15 -36 10 0 61 -3 113 -7 52 -4 156 -9 229
-11 74 -2 139 -8 145 -14 14 -14 96 -13 96 1 0 8 48 11 158 10 232 -3 230 -3
241 18 6 10 7 44 4 76 -4 39 -3 56 5 54 5 -2 44 -36 85 -76 41 -39 87 -79 101
-88 44 -29 43 -58 -1 -99 l-38 -35 118 1 117 1 0 128 c0 82 -4 129 -10 129
-13 0 -29 -42 -37 -97 -4 -28 -11 -43 -20 -43 -8 0 -64 43 -125 96 -184 162
-248 193 -284 139z m-366 -192 c-10 -2 -26 -2 -35 0 -10 3 -2 5 17 5 19 0 27
-2 18 -5z"/>
<path d="M762 249 c-30 -11 -27 -54 3 -54 16 0 20 7 21 33 1 17 1 32 0 31 -1
0 -11 -4 -24 -10z"/>
<path d="M136 235 c-19 -15 -19 -15 4 -40 13 -14 29 -25 36 -25 7 0 26 -11 43
-25 30 -26 49 -67 53 -117 2 -26 5 -28 50 -28 l47 0 -6 38 c-3 20 -16 61 -29
91 -13 29 -24 57 -24 62 0 11 113 11 163 0 36 -9 37 -8 37 19 l0 28 -122 -1
c-68 0 -148 3 -178 7 -42 5 -59 3 -74 -9z"/>
<path d="M654 236 c-9 -24 4 -48 23 -44 12 2 18 12 18 28 0 29 -32 41 -41 16z"/>
<path d="M835 240 c-3 -5 3 -10 14 -10 12 0 21 5 21 10 0 6 -6 10 -14 10 -8 0
-18 -4 -21 -10z"/>
<path d="M1104 236 c-9 -24 4 -48 23 -44 12 2 18 12 18 28 0 29 -32 41 -41 16z"/>
<path d="M1194 236 c-9 -24 4 -48 23 -44 12 2 18 12 18 28 0 29 -32 41 -41 16z"/>
<path d="M17 129 c-13 -8 -17 -24 -17 -69 l0 -60 51 0 52 0 -7 41 c-12 72 -43
107 -79 88z"/>
</g>
</svg>
