<?xml version="1.0" standalone="no"?>
<!DOCTYPE svg PUBLIC "-//W3C//DTD SVG 20010904//EN"
 "http://www.w3.org/TR/2001/REC-SVG-20010904/DTD/svg10.dtd">
<svg version="1.0" xmlns="http://www.w3.org/2000/svg"
 width="636" height="833.5" viewBox="0 0 1116.000000 1143.000000"
 preserveAspectRatio="xMidYMid meet">

<g transform="translate(0.000000,1143.000000) scale(0.100000,-0.100000)"
fill="#000000" stroke="none">
<path d=" M6832 10979 c-49 -24 -88 -58 -188 -165 -159 -167 -161 -168 -405
-184 -276 -17 -337 -45 -487 -223 -111 -133 -170 -183 -238 -203 -98 -28 -208
3 -243 70 -17 30 -5 78 47 201 16 39 25 72 20 73 -5 2 -35 -6 -66 -19 -177
-71 -323 -210 -383 -364 -20 -51 -23 -79 -24 -180 0 -106 3 -130 29 -208 l28
-87 -36 -68 c-47 -90 -66 -169 -67 -267 0 -106 19 -177 86 -311 l55 -110 -36
-90 c-66 -161 -117 -353 -145 -539 -21 -134 -18 -548 5 -690 70 -446 215 -771
453 -1015 l93 -95 -58 -6 c-216 -24 -278 -31 -362 -39 -432 -44 -895 -72
-1042 -64 -417 21 -1021 159 -1286 293 -52 26 -62 36 -90 93 -17 35 -53 85
-79 112 -45 46 -78 72 -278 216 -168 121 -252 248 -262 397 -5 74 -2 86 50
249 74 226 94 343 77 444 -15 91 -28 119 -77 159 -56 46 -130 65 -228 58 -176
-13 -296 -64 -401 -171 -108 -110 -165 -239 -194 -441 -28 -197 -1 -366 94
-590 31 -74 32 -87 4 -120 -22 -25 -30 -26 -201 -40 -270 -22 -359 -50 -450
-141 -89 -90 -127 -206 -107 -331 14 -86 43 -150 109 -237 l52 -68 -30 -47
c-48 -75 -82 -157 -88 -215 -15 -141 31 -219 202 -341 l28 -21 -26 -39 c-84
-128 -73 -272 33 -423 67 -96 161 -172 295 -238 156 -78 290 -109 520 -124 97
-6 214 -19 259 -29 44 -11 122 -24 171 -31 50 -6 119 -16 155 -20 36 -5 169
-15 297 -21 345 -19 791 6 1118 62 249 43 725 166 944 243 24 9 49 16 55 16 8
0 12 -103 13 -368 3 -475 40 -1075 82 -1337 9 -54 48 -322 87 -590 25 -174 83
-626 103 -815 6 -47 19 -166 30 -265 16 -137 81 -800 81 -820 0 -5 168 -105
176 -105 11 0 -20 299 -76 725 -46 350 -54 425 -44 425 4 0 102 -38 218 -84
116 -46 234 -91 262 -100 l51 -17 7 -259 c3 -142 3 -389 0 -548 l-7 -290 94
-30 c95 -31 265 -79 329 -92 19 -4 69 -15 110 -23 104 -23 263 -44 405 -56
345 -29 417 -33 495 -29 128 8 545 46 630 59 41 5 107 15 145 20 39 6 90 14
115 19 25 5 74 14 110 20 246 44 715 164 780 199 8 4 62 14 120 21 58 7 108
16 112 19 4 4 -37 111 -92 239 -55 127 -100 237 -100 243 0 9 50 10 198 6 108
-4 296 -10 418 -13 l221 -7 43 54 c46 58 128 223 181 362 l33 88 -23 72 c-29
90 -99 241 -140 301 -17 24 -31 46 -31 49 0 2 32 37 70 77 166 173 422 622
669 1173 11 26 30 66 40 90 114 254 241 650 241 753 0 70 -30 132 -155 316
-329 483 -701 918 -1045 1222 -418 369 -1028 720 -1640 945 -169 63 -161 48
-79 144 39 45 110 130 157 190 86 106 87 107 129 107 24 0 71 9 105 21 170 57
309 213 353 397 33 134 12 262 -61 374 -18 26 -17 28 28 115 121 232 220 529
258 778 51 334 32 571 -65 780 -116 252 -296 484 -440 567 -108 63 -133 91
-243 284 -112 195 -142 212 -467 274 -119 23 -139 33 -235 121 -169 154 -322
197 -458 128z m246 -120 c31 -17 88 -56 125 -86 38 -31 97 -72 131 -93 59 -36
88 -46 281 -99 121 -34 182 -68 255 -141 36 -36 100 -117 142 -181 50 -76 96
-133 133 -165 129 -109 170 -153 230 -244 195 -296 260 -535 225 -830 -22
-191 -60 -353 -118 -514 l-36 -100 -14 45 c-67 214 -123 303 -308 485 l-143
141 42 31 c67 49 143 126 183 187 49 74 56 140 24 235 -42 123 -85 176 -184
227 -38 20 -71 27 -130 31 -94 6 -153 -6 -306 -63 -63 -23 -138 -46 -165 -49
l-50 -7 -81 83 c-44 46 -103 115 -132 153 -30 41 -80 92 -119 122 -157 118
-154 118 -458 -50 -66 -37 -144 -76 -173 -87 l-53 -20 -127 66 c-111 57 -134
66 -180 66 -110 -1 -204 -67 -372 -259 -134 -153 -194 -207 -277 -245 -79 -35
-189 -40 -239 -9 -109 67 -195 237 -210 414 -11 138 23 263 99 364 35 47 57
55 57 21 1 -35 34 -102 66 -132 16 -15 52 -39 79 -54 44 -23 62 -27 140 -27
140 0 182 25 399 238 106 104 199 177 259 202 61 25 145 19 261 -20 58 -19
120 -35 139 -35 54 0 102 44 205 188 96 134 164 212 201 233 51 28 125 20 199
-22z m-856 -1015 c105 -50 125 -56 181 -56 78 1 115 10 251 62 101 38 116 42
186 38 66 -3 88 -9 164 -47 71 -35 106 -61 179 -133 49 -49 103 -96 118 -104
41 -21 125 -17 236 11 181 45 291 55 367 34 59 -16 140 -102 160 -169 21 -69
20 -106 -3 -156 -26 -58 -73 -108 -157 -166 -52 -37 -74 -58 -74 -73 0 -15 26
-40 87 -85 252 -186 365 -325 422 -516 11 -39 21 -95 21 -125 l-1 -54 -67 130
c-73 141 -125 221 -203 315 -51 61 -152 150 -208 183 -30 17 -30 17 -47 -8
l-16 -25 150 -154 c195 -201 312 -374 357 -529 29 -100 12 -90 -58 33 -127
223 -237 348 -359 409 -73 37 -88 31 -67 -26 10 -26 37 -56 88 -97 76 -61 154
-148 223 -249 63 -93 139 -228 132 -238 -3 -5 -25 -19 -49 -32 l-44 -22 55
-75 c70 -94 92 -143 100 -218 16 -154 -78 -322 -223 -395 -50 -26 -134 -45
-213 -50 -43 -2 -46 -4 -98 -77 -111 -158 -172 -230 -312 -370 -143 -144 -223
-212 -311 -263 -47 -28 -109 -83 -109 -98 0 -13 77 -10 140 5 75 19 129 39
170 65 45 27 52 26 40 -3 -69 -181 -167 -286 -371 -395 -116 -62 -274 -115
-395 -132 -97 -13 -222 -3 -289 25 -29 12 -26 13 65 30 110 19 203 48 243 75
29 19 29 19 -165 24 -217 5 -288 20 -483 100 -493 201 -835 574 -1013 1104
-76 225 -112 452 -112 698 1 278 46 524 145 780 48 124 134 302 196 403 21 35
39 66 39 69 0 2 6 10 13 18 6 7 19 22 28 32 9 11 60 37 113 57 118 46 169 85
282 218 115 135 169 192 227 239 73 58 117 56 269 -17z m-1179 -345 c18 -10
52 -33 166 -116 2 -1 -12 -26 -31 -56 -19 -29 -59 -97 -88 -152 -29 -55 -57
-104 -61 -109 -12 -13 -67 112 -85 194 -19 82 -8 152 32 213 26 40 34 43 67
26z m-3226 -1234 c40 -23 63 -78 63 -148 0 -28 -21 -153 -47 -277 -55 -268
-60 -315 -39 -415 30 -143 91 -234 236 -348 182 -143 275 -256 374 -455 93
-184 111 -350 57 -511 -16 -48 -38 -103 -49 -122 -72 -129 -123 -231 -119
-235 3 -3 25 6 50 20 24 14 47 26 51 26 12 0 -4 -145 -25 -237 -38 -166 -103
-295 -204 -401 -134 -143 -328 -212 -593 -212 -96 0 -276 21 -337 38 -47 14
-118 53 -110 60 4 4 133 10 288 13 283 7 339 13 452 51 80 27 117 50 163 103
78 89 83 197 12 309 l-31 47 31 39 c81 102 114 217 86 297 -20 57 -77 144
-133 204 l-47 50 51 44 c89 78 115 165 89 299 -46 237 -155 334 -560 501
l-149 61 -63 124 c-104 205 -138 331 -138 515 -2 309 123 502 367 570 75 21
231 16 274 -10z m-392 -1352 c156 -44 350 -145 432 -224 64 -62 85 -108 91
-206 6 -99 -12 -158 -61 -199 -41 -35 -77 -30 -249 37 -170 66 -250 81 -418
81 -136 0 -193 -6 -418 -43 -144 -24 -128 -33 -193 99 -37 75 -42 91 -42 160
-1 61 4 86 21 119 44 84 120 149 197 168 153 38 517 42 640 8z m6352 -292 c82
-33 169 -69 196 -81 l47 -21 -6 -42 c-42 -278 -188 -539 -415 -742 -71 -63
-229 -173 -323 -225 -102 -56 -249 -114 -326 -129 -229 -44 -262 -63 -306
-168 -18 -41 -21 -61 -64 -390 -33 -253 -74 -699 -90 -978 -20 -354 -4 -977
30 -1165 13 -70 52 -119 116 -145 43 -17 74 -19 269 -19 211 -1 265 4 495 40
291 46 649 137 861 219 15 5 17 -26 23 -327 4 -183 9 -367 12 -409 l6 -77
-183 -60 c-348 -114 -685 -186 -1084 -229 -200 -21 -678 -24 -835 -4 -457 57
-813 167 -1145 353 l-100 57 -18 93 c-10 51 -22 113 -27 138 -14 65 -100 726
-100 762 0 5 15 0 32 -11 117 -77 324 -194 456 -258 151 -73 157 -75 219 -71
102 6 99 -3 93 281 -8 402 -4 963 9 1153 25 358 82 785 148 1104 53 256 52
274 -19 357 -109 127 -169 247 -199 401 -9 48 -9 76 0 122 10 48 45 152 57
169 4 5 236 -89 253 -102 8 -7 34 -42 57 -79 67 -104 143 -172 248 -223 138
-67 196 -79 366 -78 154 0 230 12 366 58 191 64 407 214 496 344 17 25 45 66
61 90 36 52 72 126 93 189 24 72 66 162 75 162 5 0 75 -27 156 -59z m-4927
-217 c130 -24 160 -29 315 -53 203 -32 479 -59 650 -64 159 -6 494 13 965 53
63 6 196 17 295 25 99 8 208 18 241 21 34 4 86 4 117 0 l55 -7 -21 -67 c-29
-93 -31 -335 -3 -432 40 -138 86 -220 178 -315 l48 -51 -20 -94 c-163 -752
-217 -1519 -174 -2443 l7 -138 -29 15 c-16 9 -101 51 -189 94 -185 91 -288
151 -400 235 -44 33 -83 63 -87 66 -6 6 -14 65 -39 296 -33 304 -45 490 -59
923 -11 301 -6 484 20 801 5 63 8 117 5 119 -4 4 -126 -24 -129 -30 -1 -2 -7
-15 -14 -30 l-12 -28 -122 0 c-283 0 -593 58 -831 156 -234 96 -440 218 -652
389 -166 133 -171 138 -184 203 -6 31 -18 93 -26 137 -9 44 -22 105 -29 135
-25 99 -26 110 -19 110 5 0 69 -12 143 -26z m-195 -195 c50 -176 60 -245 60
-424 0 -148 -3 -180 -23 -250 -69 -236 -255 -486 -475 -637 l-90 -61 -86 13
c-47 7 -91 15 -98 19 -6 3 22 24 65 46 55 29 101 64 164 126 135 134 210 261
286 489 44 132 45 138 48 275 2 135 3 142 33 201 29 57 60 163 76 258 3 21 8
36 11 34 2 -3 15 -43 29 -89z m-1205 38 c287 -68 506 -200 554 -335 21 -61 17
-107 -15 -188 -17 -43 -26 -53 -51 -58 -65 -13 -103 -7 -268 37 -160 44 -388
77 -524 77 -91 0 -263 -21 -324 -39 -28 -9 -37 -6 -75 22 -66 50 -100 128
-105 243 -5 100 7 154 42 192 29 33 43 39 127 56 111 23 138 24 344 21 159 -3
207 -8 295 -28z m-170 -602 c243 -33 447 -90 565 -160 102 -59 104 -140 5
-229 -89 -80 -186 -101 -460 -100 -416 1 -601 81 -627 269 -12 89 27 164 108
205 81 42 180 45 409 15z m7565 -1496 c17 -4 90 -28 163 -53 73 -25 139 -46
147 -46 32 0 22 -26 -49 -132 -41 -62 -106 -169 -145 -238 -105 -183 -393
-763 -421 -847 -22 -65 -23 -77 -12 -118 11 -42 10 -49 -15 -96 -22 -40 -29
-46 -35 -32 -10 28 -9 372 2 481 23 225 58 405 171 887 10 44 26 114 35 155 9
41 18 78 20 81 2 4 28 -2 56 -13 29 -11 67 -24 83 -29z m-77 -1747 c70 -70
156 -147 192 -170 69 -43 190 -80 343 -104 42 -6 77 -15 77 -20 0 -4 -22 -35
-49 -69 -93 -115 -139 -238 -125 -330 7 -43 76 -126 157 -191 49 -38 50 -38
76 -22 53 33 81 67 76 88 -14 49 -50 136 -58 136 -4 0 -31 -12 -59 -26 -56
-29 -55 -29 -88 40 -18 40 -18 40 5 87 32 63 109 140 167 167 76 35 81 33 126
-62 83 -171 96 -275 48 -391 -31 -74 -72 -141 -115 -188 l-26 -28 -220 2
c-288 3 -525 22 -590 46 -57 21 -75 47 -124 175 -69 179 -115 399 -115 558 -1
121 11 168 69 275 31 57 95 155 101 155 2 0 62 -58 132 -128z M6893 9347 c-28 -23 -52 -45 -52 -48 -1 -3 18 -14 42 -25 98 -43 161
-89 262 -192 94 -97 105 -104 105 -80 0 41 -38 136 -80 198 -39 58 -185 190
-210 189 -8 0 -38 -19 -67 -42z M5545 9342 c-39 -20 -84 -47 -100 -60 -32 -25 -87 -93 -81 -99 2 -3
29 10 60 27 71 40 148 68 209 76 37 5 47 10 42 21 -6 18 -48 72 -55 72 -3 0
-37 -16 -75 -37z M5460 8858 c-52 -35 -84 -108 -88 -198 -5 -93 11 -154 48 -192 40
-40 79 -38 118 6 90 102 84 343 -9 391 -35 19 -30 19 -69 -7z M6182 8815 c-16 -13 -46 -57 -67 -97 -84 -159 -197 -318 -326 -458
-28 -30 -57 -70 -65 -88 -14 -31 -13 -37 6 -75 44 -84 114 -197 142 -228 27
-29 33 -31 81 -27 29 3 65 10 80 17 33 13 32 16 -50 138 -44 64 -57 92 -60
130 -4 45 0 56 82 198 143 248 193 356 214 471 10 51 4 54 -37 19z M6749 8766 c-25 -7 -72 -25 -104 -40 l-58 -26 22 -24 c15 -16 48 -30
94 -42 91 -22 215 -84 337 -168 105 -73 107 -73 117 12 7 62 -19 154 -57 202
-16 20 -52 49 -82 65 -45 25 -66 29 -138 32 -49 1 -104 -3 -131 -11z M7832 8408 c-22 -22 -13 -35 68 -97 44 -35 112 -101 151 -147 39 -47
73 -83 76 -81 8 9 -25 105 -51 149 -34 57 -91 119 -145 157 -46 33 -79 39 -99
19z M7831 8174 c-29 -21 -26 -39 13 -87 18 -23 48 -66 66 -95 19 -31 36
-49 43 -46 55 32 61 78 19 145 -51 78 -103 109 -141 83z M6670 7869 c0 -7 7 -41 16 -75 23 -93 18 -113 -36 -140 -50 -24 -323
-104 -465 -136 -145 -32 -333 -35 -496 -8 -148 24 -218 41 -295 72 -46 19 -52
25 -58 57 -3 20 -6 54 -6 76 l0 39 -65 -64 c-135 -134 -146 -169 -86 -284 46
-89 113 -196 122 -196 4 0 10 17 14 37 9 47 22 73 38 73 7 0 49 -23 92 -51 91
-58 276 -150 349 -174 156 -51 260 -56 411 -20 164 38 325 111 562 252 86 51
95 54 130 46 l38 -9 -3 -81 c-4 -75 -2 -82 18 -93 29 -15 33 -10 58 80 58 205
68 284 41 316 -49 60 -379 306 -379 283z m154 -325 l48 -36 -37 -38 c-28 -28
-77 -56 -185 -105 -184 -81 -337 -139 -415 -156 -83 -18 -333 -15 -410 4 -143
36 -478 172 -502 204 -17 23 -16 68 2 83 11 9 30 8 87 -5 40 -9 97 -21 126
-26 28 -5 78 -14 110 -19 121 -23 299 -35 402 -28 149 10 263 34 535 117 72
21 144 39 160 40 19 0 47 -12 79 -35z"/>



</g>
</svg>
